<svg xmlns="http://www.w3.org/2000/svg" viewBox="0 0 800 600" fill="none" stroke="#1c1917" stroke-width="2.5">
  <!-- Cranial vault contour -->
  <path d="M200,400 Q200,200 400,120 Q600,200 600,400" opacity="0.6"/>
  <path d="M220,400 Q220,220 400,145 Q580,220 580,400" opacity="0.4"/>
  <path d="M240,400 Q240,240 400,170 Q560,240 560,400" opacity="0.25"/>

  <!-- Skull base line -->
  <path d="M200,400 Q280,380 340,400 Q400,420 460,400 Q520,380 600,400" opacity="0.6"/>
  <path d="M220,410 Q290,392 345,410 Q400,428 455,410 Q510,392 580,410" opacity="0.35"/>

  <!-- Synchondroses markers (vertical growth plates) -->
  <line x1="340" y1="380" x2="340" y2="420" opacity="0.7" stroke-width="1"/>
  <line x1="400" y1="375" x2="400" y2="425" opacity="0.7" stroke-width="1"/>
  <line x1="460" y1="380" x2="460" y2="420" opacity="0.7" stroke-width="1"/>

  <!-- Subtle concentric arcs around synchondroses -->
  <circle cx="340" cy="400" r="15" opacity="0.15"/>
  <circle cx="340" cy="400" r="25" opacity="0.08"/>
  <circle cx="400" cy="400" r="15" opacity="0.15"/>
  <circle cx="400" cy="400" r="25" opacity="0.08"/>
  <circle cx="460" cy="400" r="15" opacity="0.15"/>
  <circle cx="460" cy="400" r="25" opacity="0.08"/>

  <!-- Nasal / facial contour -->
  <path d="M340,400 Q330,440 350,480 Q370,500 380,520" opacity="0.3"/>
  <path d="M460,400 Q470,430 460,460" opacity="0.2"/>

  <!-- Spinal column hint -->
  <path d="M390,425 Q395,480 400,540 Q405,480 410,425" opacity="0.2"/>

  <!-- Grid reference lines -->
  <line x1="150" y1="400" x2="650" y2="400" opacity="0.06" stroke-dasharray="4 8"/>
  <line x1="400" y1="80" x2="400" y2="560" opacity="0.06" stroke-dasharray="4 8"/>
</svg>
